<?xml version="1.0" encoding="utf-8"?>

<!DOCTYPE svg PUBLIC "-//W3C//DTD SVG 1.1//EN" "http://www.w3.org/Graphics/SVG/1.1/DTD/svg11.dtd">
<!-- Uploaded to: SVG Repo, www.svgrepo.com, Generator: SVG Repo Mixer Tools -->
<svg version="1.1" id="_x32_" xmlns="http://www.w3.org/2000/svg" xmlns:xlink="http://www.w3.org/1999/xlink" 
	 width="800px" height="800px" viewBox="0 0 512 512"  xml:space="preserve">
<style type="text/css">
<![CDATA[
	.st0{fill:#f02bc5;}
]]>
</style>
<g>
	<path class="st0" d="M427.197,157.686c-3.594-1.609-7.203-3.125-10.828-4.656c-1.406,1.031-3.016,2.016-4.953,2.906
		c-0.844,0.406-2.063,0.906-3.578,1.406c-23.031,8.031-79.25,4-143.188-10.25s-116.563-34.5-134.047-51.594
		c-0.969-0.875-1.953-1.938-2.813-3c-1.109-1.297-1.953-2.578-2.688-3.859c-3-0.078-5.984-0.234-8.969-0.281
		c-13.828-0.234-80.656,3.203-83.609,16.438c-4.719,21.203,62.547,41.813,74.656,46.344c48.328,17.969,98.453,31.344,148.719,42.547
		c50.297,11.219,101.359,20.406,152.75,24.641c12.891,1.063,82.531,10.969,87.266-10.234
		C500.65,186.811,439.807,163.342,427.197,157.686z"/>
	<path class="st0" d="M269.947,123.326c62.859,14,111.531,16.328,128.563,11.438c0.188-3.5,0.281-6.984,0.172-10.453
		c-0.047-2.422-0.203-4.797-0.453-7.172C393.572,62.904,354.369,15.576,298.4,3.092C242.463-9.361,186.838,16.811,159.588,63.936
		c-1.203,2.063-2.359,4.141-3.438,6.297c-1.781,3.516-3.359,7.156-4.844,10.906C167.588,92.982,210.916,110.17,269.947,123.326z
		 M355.307,76.779c9.156,0.906,15.688,10.453,14.609,21.281s-9.375,18.906-18.516,17.969c-9.156-0.906-15.703-10.438-14.625-21.281
		C337.854,83.92,346.15,75.873,355.307,76.779z M284.15,67.014c10.641,2.375,17.328,12.906,14.969,23.531
		c-2.375,10.641-12.906,17.328-23.547,14.969c-10.625-2.375-17.328-12.906-14.953-23.547
		C262.979,71.342,273.525,64.639,284.15,67.014z M193.322,58.701c3.625-10.281,13.594-16.125,22.266-13.063
		s12.766,13.875,9.141,24.125c-3.625,10.281-13.594,16.125-22.281,13.063C193.775,79.764,189.697,68.951,193.322,58.701z"/>
	<path class="st0" d="M27.619,438.686c-1.5-0.328-2.969-0.906-4.344-1.719c-7.188-4.234-9.594-13.453-5.375-20.625l124.391-211.625
		c4.203-7.172,13.453-9.594,20.625-5.359c7.172,4.219,9.578,13.438,5.359,20.625L43.9,431.607
		C40.494,437.404,33.838,440.076,27.619,438.686z"/>
	<path class="st0" d="M354.932,511.639c-6.219-1.375-11.109-6.625-11.734-13.297L320.479,253.92
		c-0.766-8.297,5.313-15.625,13.609-16.391c8.266-0.766,15.625,5.313,16.406,13.594l22.719,244.422
		c0.766,8.281-5.328,15.641-13.609,16.391C357.994,512.076,356.416,511.982,354.932,511.639z"/>
	<path class="st0" d="M170.557,424.779c-1.797,8.109-9.859,13.234-17.984,11.422c-8.125-1.797-13.25-9.859-11.438-17.984
		s9.875-13.25,18-11.438S172.369,416.654,170.557,424.779z"/>
	<path class="st0" d="M271.947,385.607c-1.813,8.125-9.859,13.234-17.984,11.422s-13.25-9.859-11.453-18
		c1.828-8.109,9.875-13.219,18-11.406C268.635,369.42,273.744,377.467,271.947,385.607z"/>
	<path class="st0" d="M229.494,298.936c-1.813,8.125-9.859,13.234-17.984,11.422c-8.125-1.797-13.25-9.859-11.438-18
		c1.813-8.094,9.875-13.234,17.984-11.422C226.182,282.764,231.307,290.811,229.494,298.936z"/>
</g>
</svg>